<svg width="26" height="18" viewBox="0 0 26 18" fill="none" xmlns="http://www.w3.org/2000/svg">
<path d="M1.66667 17.5C1.26528 17.5 0.929061 17.364 0.658005 17.092C0.386949 16.82 0.250949 16.4838 0.250005 16.0833C0.24906 15.6829 0.385061 15.3467 0.658005 15.0747C0.93095 14.8027 1.26717 14.6667 1.66667 14.6667H24.3333C24.7347 14.6667 25.0714 14.8027 25.3434 15.0747C25.6154 15.3467 25.751 15.6829 25.75 16.0833C25.7491 16.4838 25.6131 16.8205 25.342 17.0934C25.071 17.3664 24.7347 17.5019 24.3333 17.5H1.66667ZM1.66667 10.4167C1.26528 10.4167 0.929061 10.2807 0.658005 10.0087C0.386949 9.73667 0.250949 9.40044 0.250005 9C0.24906 8.59956 0.385061 8.26333 0.658005 7.99133C0.93095 7.71933 1.26717 7.58333 1.66667 7.58333H24.3333C24.7347 7.58333 25.0714 7.71933 25.3434 7.99133C25.6154 8.26333 25.751 8.59956 25.75 9C25.7491 9.40044 25.6131 9.73714 25.342 10.0101C25.071 10.283 24.7347 10.4186 24.3333 10.4167H1.66667ZM1.66667 3.33333C1.26528 3.33333 0.929061 3.19733 0.658005 2.92533C0.386949 2.65333 0.250949 2.31711 0.250005 1.91667C0.24906 1.51622 0.385061 1.18 0.658005 0.908C0.93095 0.636 1.26717 0.5 1.66667 0.5H24.3333C24.7347 0.5 25.0714 0.636 25.3434 0.908C25.6154 1.18 25.751 1.51622 25.75 1.91667C25.7491 2.31711 25.6131 2.65381 25.342 2.92675C25.071 3.19969 24.7347 3.33522 24.3333 3.33333H1.66667Z" fill="#314385"/>
</svg>
